<svg xmlns="http://www.w3.org/2000/svg" viewBox="0 0 1000 1500" role="img" aria-labelledby="title desc">
  <title id="title">Cops poster</title>
  <desc id="desc">Stylized poster art for the 1922 Buster Keaton short Cops.</desc>
  <defs>
    <linearGradient id="bg" x1="0" y1="0" x2="0" y2="1">
      <stop offset="0%" stop-color="#0e1523"/>
      <stop offset="100%" stop-color="#22344f"/>
    </linearGradient>
  </defs>
  <rect width="1000" height="1500" fill="url(#bg)"/>
  <rect x="42" y="42" width="916" height="1416" rx="28" fill="none" stroke="#d7c7a1" stroke-width="8"/>
  <text x="500" y="175" fill="#d7c7a1" font-size="44" text-anchor="middle" font-family="Georgia, serif" letter-spacing="8">BUSTER KEATON</text>
  <text x="500" y="350" fill="#f2f4f7" font-size="192" text-anchor="middle" font-family="Impact, Arial Black, sans-serif" letter-spacing="4">COPS</text>
  <g fill="#e9edf2">
    <rect x="188" y="520" width="84" height="560" rx="24"/>
    <rect x="324" y="470" width="84" height="610" rx="24"/>
    <rect x="460" y="550" width="84" height="530" rx="24"/>
    <rect x="596" y="500" width="84" height="580" rx="24"/>
    <rect x="732" y="545" width="84" height="535" rx="24"/>
  </g>
  <g fill="#101722">
    <circle cx="230" cy="470" r="56"/>
    <circle cx="366" cy="420" r="56"/>
    <circle cx="502" cy="500" r="56"/>
    <circle cx="638" cy="450" r="56"/>
    <circle cx="774" cy="495" r="56"/>
  </g>
  <path d="M500 690c-102 84-156 162-156 226 0 76 70 128 156 128s156-52 156-128c0-64-54-142-156-226z" fill="#f8edd8"/>
  <circle cx="456" cy="754" r="10" fill="#111"/>
  <circle cx="544" cy="754" r="10" fill="#111"/>
  <path d="M438 842c44 34 80 34 124 0" fill="none" stroke="#111" stroke-width="18" stroke-linecap="round"/>
  <text x="500" y="1210" fill="#d7c7a1" font-size="48" text-anchor="middle" font-family="Arial, sans-serif" letter-spacing="5">THE ENTIRE POLICE FORCE GIVES CHASE</text>
  <text x="500" y="1302" fill="#f2f4f7" font-size="58" text-anchor="middle" font-family="Georgia, serif">Public Domain Silent Short</text>
  <text x="500" y="1390" fill="#d7c7a1" font-size="72" text-anchor="middle" font-family="Georgia, serif" letter-spacing="10">1922</text>
</svg>
