<svg xmlns="http://www.w3.org/2000/svg" viewBox="0 0 1000 1500" role="img" aria-labelledby="title desc">
  <title id="title">The Goat poster</title>
  <desc id="desc">Stylized poster art for the 1921 Buster Keaton short The Goat.</desc>
  <defs>
    <linearGradient id="bg" x1="0" y1="0" x2="1" y2="1">
      <stop offset="0%" stop-color="#16120f"/>
      <stop offset="100%" stop-color="#3d2a1c"/>
    </linearGradient>
  </defs>
  <rect width="1000" height="1500" fill="url(#bg)"/>
  <rect x="48" y="48" width="904" height="1404" rx="28" fill="none" stroke="#d4b06a" stroke-width="8"/>
  <text x="500" y="170" fill="#d4b06a" font-size="44" text-anchor="middle" font-family="Georgia, serif" letter-spacing="8">BUSTER KEATON</text>
  <text x="500" y="290" fill="#f8edd8" font-size="150" text-anchor="middle" font-family="Georgia, serif" font-weight="700">THE</text>
  <text x="500" y="430" fill="#f8edd8" font-size="176" text-anchor="middle" font-family="Georgia, serif" font-weight="700">GOAT</text>
  <g transform="translate(500 830)">
    <circle r="215" fill="#f4e6cd"/>
    <ellipse cx="-18" cy="-20" rx="96" ry="125" fill="#111"/>
    <circle cx="-52" cy="-42" r="9" fill="#f4e6cd"/>
    <circle cx="10" cy="-38" r="9" fill="#f4e6cd"/>
    <path d="M-114 -126c-48-68-24-122 18-144 6 61 22 102 56 144" fill="none" stroke="#111" stroke-width="18" stroke-linecap="round"/>
    <path d="M78 -124c48-68 24-122-18-144-6 61-22 102-56 144" fill="none" stroke="#111" stroke-width="18" stroke-linecap="round"/>
    <path d="M-118 78c38 36 76 54 118 54s80-18 118-54" fill="none" stroke="#111" stroke-width="20" stroke-linecap="round"/>
    <rect x="-150" y="152" width="300" height="36" rx="18" fill="#111"/>
  </g>
  <text x="500" y="1180" fill="#d9c2a0" font-size="48" text-anchor="middle" font-family="Arial, sans-serif" letter-spacing="4">THE GREAT STONE FACE ON THE RUN</text>
  <text x="500" y="1270" fill="#f8edd8" font-size="58" text-anchor="middle" font-family="Georgia, serif">Public Domain Silent Short</text>
  <text x="500" y="1365" fill="#d4b06a" font-size="72" text-anchor="middle" font-family="Georgia, serif" letter-spacing="10">1921</text>
</svg>
