<svg xmlns="http://www.w3.org/2000/svg" viewBox="0 0 1000 1500" role="img" aria-labelledby="title desc">
  <title id="title">The Love Nest poster</title>
  <desc id="desc">Stylized poster art for the 1923 Buster Keaton short The Love Nest.</desc>
  <defs>
    <linearGradient id="bg" x1="0" y1="0" x2="0" y2="1">
      <stop offset="0%" stop-color="#0d1a24"/>
      <stop offset="100%" stop-color="#20445b"/>
    </linearGradient>
  </defs>
  <rect width="1000" height="1500" fill="url(#bg)"/>
  <rect x="44" y="44" width="912" height="1412" rx="28" fill="none" stroke="#f4d9a7" stroke-width="8"/>
  <text x="500" y="172" fill="#f4d9a7" font-size="44" text-anchor="middle" font-family="Georgia, serif" letter-spacing="8">BUSTER KEATON</text>
  <text x="500" y="298" fill="#fff6e7" font-size="112" text-anchor="middle" font-family="Georgia, serif" font-weight="700">THE</text>
  <text x="500" y="430" fill="#fff6e7" font-size="146" text-anchor="middle" font-family="Georgia, serif" font-weight="700">LOVE NEST</text>
  <g transform="translate(500 815)">
    <path d="M-250 112c68-228 432-228 500 0" fill="#173446"/>
    <path d="M-246 112h492c-32 132-134 234-246 234S-214 244-246 112z" fill="#f8edd8"/>
    <path d="M-188 22c42-72 98-114 188-150 90 36 146 78 188 150" fill="none" stroke="#f4d9a7" stroke-width="18" stroke-linecap="round"/>
    <circle cx="-40" cy="110" r="10" fill="#111"/>
    <circle cx="40" cy="110" r="10" fill="#111"/>
    <path d="M-74 180c46 30 102 30 148 0" fill="none" stroke="#111" stroke-width="16" stroke-linecap="round"/>
    <path d="M-174 30l-54-62M174 30l54-62" stroke="#f4d9a7" stroke-width="14" stroke-linecap="round"/>
  </g>
  <text x="500" y="1208" fill="#f4d9a7" font-size="46" text-anchor="middle" font-family="Arial, sans-serif" letter-spacing="4">A HEARTBROKEN SAILOR ADRIFT IN COMEDY</text>
  <text x="500" y="1302" fill="#fff6e7" font-size="58" text-anchor="middle" font-family="Georgia, serif">Public Domain Silent Short</text>
  <text x="500" y="1390" fill="#f4d9a7" font-size="72" text-anchor="middle" font-family="Georgia, serif" letter-spacing="10">1923</text>
</svg>
